<svg width="18" height="19" viewBox="0 0 18 19" fill="none" xmlns="http://www.w3.org/2000/svg">
    <path
        d="M11.375 9.5L17.2266 15.4062C17.3906 15.5703 17.5 15.7891 17.5 16.0078C17.5 16.2812 17.3906 16.5 17.2266 16.6094L15.8594 17.9766C15.6953 18.1953 15.4766 18.25 15.2578 18.25C14.9844 18.25 14.7656 18.1953 14.6562 17.9766L8.75 12.125L2.84375 17.9766C2.67969 18.1953 2.46094 18.25 2.24219 18.25C1.96875 18.25 1.75 18.1953 1.64062 17.9766L0.273438 16.6094C0.0546875 16.5 0 16.2812 0 16.0078C0 15.7891 0.0546875 15.5703 0.273438 15.4062L6.125 9.5L0.273438 3.59375C0.0546875 3.48438 0 3.26562 0 2.99219C0 2.77344 0.0546875 2.55469 0.273438 2.39062L1.64062 1.02344C1.75 0.859375 1.96875 0.75 2.24219 0.75C2.46094 0.75 2.67969 0.859375 2.84375 1.02344L8.75 6.875L14.6562 1.02344C14.7656 0.859375 14.9844 0.75 15.2578 0.75C15.4766 0.75 15.6953 0.859375 15.8594 1.02344L17.2266 2.39062C17.3906 2.55469 17.5 2.77344 17.5 2.99219C17.5 3.26562 17.3906 3.48438 17.2266 3.59375L11.375 9.5Z"
        fill="#D83610" />
</svg>
    