<svg width="41" height="40" viewBox="0 0 41 40" fill="none" xmlns="http://www.w3.org/2000/svg">
<path d="M15.3186 39.3185C25.3359 42.0026 35.6154 36.5852 39.2004 27.0827L26.4666 23.6706C24.8875 26.241 21.7561 27.5849 18.695 26.7646C15.634 25.9444 13.594 23.2149 13.5116 20.1994L0.754185 16.781C-0.89235 26.803 5.30125 36.6344 15.3186 39.3185Z" fill="white"/>
<path d="M27.5019 19.8069L40.2357 23.219C41.8823 13.197 35.6887 3.36561 25.6713 0.681473C15.654 -2.00266 5.37451 3.41476 1.78946 12.9173L14.5469 16.3357C16.126 13.7653 19.2574 12.4215 22.3185 13.2417C25.3796 14.0619 27.4196 16.7914 27.5019 19.8069Z" fill="white"/>
<path d="M39.8135 25.1764L39.8043 25.2105L39.8226 25.1423L39.8135 25.1764Z" fill="white"/>
<path d="M1.17644 14.8236C1.26317 14.4999 1.35738 14.1802 1.45881 13.8646L0.941471 15.7953C1.01142 15.4713 1.0897 15.1473 1.17644 14.8236Z" fill="white"/>
<path d="M19.4596 23.8637C21.5935 24.4354 23.7868 23.1691 24.3586 21.0352C24.9304 18.9014 23.664 16.708 21.5302 16.1363C19.3963 15.5645 17.203 16.8308 16.6312 18.9647C16.0594 21.0986 17.3258 23.2919 19.4596 23.8637Z" fill="white"/>
</svg>
